<svg display="none" xmlns="http://www.w3.org/2000/svg">
    <symbol id="heart" viewBox="0 0 24 24">
        <path fill="currentColor" d="M13.442 3.865c2.704-1.68 6.162-.694 7.725 2.43 2.215 4.426-.711 10.114-8.862 14.559a.764.764 0 0 1-.73 0C3.425 16.408.5 10.721 2.715 6.294c1.563-3.123 5.02-4.11 7.724-2.43a6.256 6.256 0 0 1 1.501 1.323 6.263 6.263 0 0 1 1.502-1.322Zm5.936 3.324c-1.074-2.146-3.247-2.641-4.88-1.626a4.264 4.264 0 0 0-1.02.903L11.94 8.313l-1.537-1.847a4.265 4.265 0 0 0-1.02-.903c-1.633-1.015-3.805-.52-4.88 1.626-.75 1.5-.716 3.31.484 5.372 1.166 2.003 3.42 4.181 6.953 6.204 3.535-2.023 5.788-4.2 6.954-6.204 1.2-2.062 1.235-3.871.484-5.372Z"></path>
    </symbol>
    <symbol id="checkmark" viewBox="0 0 24 24">
        <path fill="#C096F0" d="M21.94 17.89a1 1 0 0 1-.65.63l-2.71.8-1.69 2.27a1 1 0 0 1-.8.41 1 1 0 0 1-.81-.43l-2.88-4.11a1 1 0 0 1-.1-1 1 1 0 0 1 .75-.6 5.94 5.94 0 0 0 4.19-3 1 1 0 0 1 1.31-.408 1 1 0 0 1 .38.328L21.82 17a1 1 0 0 1 .12.89Zm-11-2a5.94 5.94 0 0 1-4.19-3 1 1 0 0 0-1.69-.08L2.18 17a1 1 0 0 0 .54 1.53l2.7.8 1.69 2.27a1 1 0 0 0 .8.41 1 1 0 0 0 .81-.43l2.88-4.11a1 1 0 0 0 .1-1 1 1 0 0 0-.7-.57l-.06-.01Z"></path><path fill="#7B04DF" d="M19.69 8.21a3.404 3.404 0 0 1-.3-.61 3.573 3.573 0 0 1-.11-.68 3.44 3.44 0 0 0-.53-1.79A3.67 3.67 0 0 0 17.17 4a4.479 4.479 0 0 1-.62-.31A3.652 3.652 0 0 1 16 3.2a3.41 3.41 0 0 0-1.44-1.08 3.48 3.48 0 0 0-1.85 0 2.69 2.69 0 0 1-1.38 0 3.33 3.33 0 0 0-1.87-.06A3.4 3.4 0 0 0 7.9 3.29a2.94 2.94 0 0 1-.45.47 3.94 3.94 0 0 1-.62.31A3.58 3.58 0 0 0 5.3 5.13 3.5 3.5 0 0 0 4.76 7a3.42 3.42 0 0 1-.1.66 3.38 3.38 0 0 1-.31.58A3.55 3.55 0 0 0 3.72 10a3.41 3.41 0 0 0 .66 1.8c.131.184.242.382.33.59.059.223.095.45.11.68.006.637.19 1.26.53 1.8A3.6 3.6 0 0 0 6.91 16c.213.08.417.18.61.3.178.152.342.319.49.5.385.5.896.89 1.48 1.13a3.38 3.38 0 0 0 1.85-.05 2.92 2.92 0 0 1 1.41 0c.362.102.734.16 1.11.17a2.55 2.55 0 0 0 .75-.12 3.79 3.79 0 0 0 1.58-1.21 4.89 4.89 0 0 1 .44-.46 3.8 3.8 0 0 1 .58-.3 3.5 3.5 0 0 0 1.49-1 3.53 3.53 0 0 0 .54-1.82 3.31 3.31 0 0 1 .1-.66c.08-.206.18-.404.3-.59a3.4 3.4 0 0 0 .64-1.8 3.65 3.65 0 0 0-.59-1.88Z"></path><path fill="#fff" d="M11.33 12.5a1 1 0 0 1-.74-.34l-1.34-1.5a1.002 1.002 0 1 1 1.5-1.33l.58.66 1.92-2.16a1.002 1.002 0 1 1 1.5 1.33l-2.67 3a1 1 0 0 1-.75.34Z"></path>
    </symbol>
    <symbol id="diagram" viewBox="0 0 24 24">
        <path fill="#7B04DF" fill-rule="evenodd" d="M11 2H2v9h4.5V6.5H11V2ZM6.5 13v4.5H11V22H2v-9h4.5Zm6.5 9h9v-9h-4.5v4.5H13V22Z" clip-rule="evenodd"></path><path fill="#FFD400" d="M13 2h9v9h-4.5V6.5H13V2Z"></path>
    </symbol>
</svg>
